Coordinates
version=1
nRows=19
nColumns=63
inDegrees=yes

Units are S.I. units (second, meters, Newtons, ...)
If the header above contains a line with 'inDegrees', this indicates whether rotational values are in degrees (yes) or radians (no).

endheader
time	pelvis_tilt	pelvis_list	pelvis_rotation	pelvis_tx	pelvis_ty	pelvis_tz	hip_flexion_r	hip_adduction_r	hip_rotation_r	knee_angle_r	knee_angle_r_beta	ankle_angle_r	subtalar_angle_r	mtp_angle_r	hip_flexion_l	hip_adduction_l	hip_rotation_l	knee_angle_l	knee_angle_l_beta	ankle_angle_l	subtalar_angle_l	mtp_angle_l	L5_S1_Flex_Ext	L5_S1_Lat_Bending	L5_S1_axial_rotation	L4_L5_Flex_Ext	L4_L5_Lat_Bending	L4_L5_axial_rotation	L3_L4_Flex_Ext	L3_L4_Lat_Bending	L3_L4_axial_rotation	L2_L3_Flex_Ext	L2_L3_Lat_Bending	L2_L3_axial_rotation	L1_L2_Flex_Ext	L1_L2_Lat_Bending	L1_L2_axial_rotation	L1_T12_Flex_Ext	L1_T12_Lat_Bending	L1_T12_axial_rotation	Abs_r3	Abs_r2	Abs_r1	Abs_t1	Abs_t2	neck_flexion	neck_bending	neck_rotation	arm_flex_r	arm_add_r	arm_rot_r	elbow_flex_r	pro_sup_r	wrist_flex_r	wrist_dev_r	arm_flex_l	arm_add_l	arm_rot_l	elbow_flex_l	pro_sup_l	wrist_flex_l	wrist_dev_l
2.666667	-3.775997	-1.123170	103.088655	0.079170	0.980462	0.472244	-9.962725	0.743458	-3.084266	0.827002	0.014434	19.998232	-4.608819	0.000000	-7.368616	-0.131014	5.406613	0.458930	0.008010	24.125025	2.036682	0.000000	-0.084858	0.397589	0.423982	-0.157589	0.528794	0.450481	-0.139413	0.966698	0.450481	-0.096984	0.966698	0.370985	-0.078799	0.810764	0.344486	-0.048488	0.615866	0.317987	-0.606131	4.497609	2.358063	0.000000	0.000000	13.225142	1.293001	7.306484	0.627810	-37.196678	-47.294478	61.724967	31.339324	4.808313	5.594551	8.270527	-45.177309	-44.573915	52.482390	41.168072	2.365303	-11.189995
2.684211	-3.761414	-1.065243	102.780578	0.078477	0.980420	0.471806	-10.011806	0.656564	-2.711183	0.861214	0.015031	19.865779	-4.765154	0.000000	-7.489554	-0.051634	5.206370	0.446150	0.007787	24.250854	1.904914	0.000000	-0.075207	0.417179	0.384460	-0.139667	0.554848	0.408488	-0.123558	1.014330	0.408488	-0.085954	1.014330	0.336402	-0.069837	0.850712	0.312374	-0.042973	0.646211	0.288345	-0.537198	4.719215	2.138250	0.000000	0.000000	13.315661	0.915973	7.296049	0.743587	-37.040284	-46.103471	60.584786	29.691216	3.977627	3.944194	8.933456	-44.285561	-45.904976	50.406835	44.775264	4.539092	-10.294416
2.701754	-3.750460	-1.016042	102.497047	0.077683	0.980360	0.471198	-10.058467	0.565457	-2.352746	0.908190	0.015851	19.713652	-4.960877	0.000000	-7.615963	0.030505	4.951604	0.438173	0.007648	24.364720	1.887817	0.000000	-0.065129	0.434993	0.336646	-0.120951	0.578541	0.357686	-0.107001	1.057643	0.357686	-0.074436	1.057643	0.294565	-0.060479	0.887038	0.273525	-0.037215	0.673805	0.252484	-0.465211	4.920731	1.872324	0.000000	0.000000	13.450154	0.628829	7.323173	0.903922	-36.919711	-44.952209	59.521647	27.756426	2.990383	2.316832	9.648066	-43.481285	-47.674412	48.419344	48.484097	7.019349	-9.074971
2.719298	-3.742726	-0.971678	102.233852	0.076827	0.980290	0.470453	-10.099661	0.470402	-2.074948	0.977009	0.017052	19.574420	-5.090415	0.000000	-7.749472	0.112517	4.651972	0.432914	0.007556	24.456430	1.977654	0.000000	-0.055645	0.450889	0.283913	-0.103338	0.599682	0.301658	-0.091419	1.096291	0.301658	-0.063596	1.096291	0.248424	-0.051672	0.919452	0.230679	-0.031795	0.698426	0.212935	-0.397465	5.100542	1.579040	0.000000	0.000000	13.619058	0.448228	7.395414	1.080153	-36.829940	-43.924590	58.545522	25.730148	1.909066	0.826287	10.361033	-42.800624	-49.728022	46.596923	52.006465	9.626622	-7.561406
2.736842	-3.741493	-0.927386	102.013061	0.075915	0.980223	0.469624	-10.138546	0.374906	-1.850626	1.070230	0.018679	19.441220	-5.227898	0.000000	-7.893157	0.193908	4.515106	0.421936	0.007364	24.483070	1.919211	0.000000	-0.048021	0.464314	0.225202	-0.089180	0.617538	0.239277	-0.078894	1.128934	0.239277	-0.054884	1.128934	0.197052	-0.044593	0.946830	0.182977	-0.027439	0.719223	0.168902	-0.343011	5.252416	1.252507	0.000000	0.000000	13.810615	0.368076	7.492711	1.231563	-36.759186	-43.106549	57.687211	23.738140	0.736945	-0.425189	10.983801	-42.307748	-51.768678	45.022278	55.000687	12.079506	-5.900864
2.754386	-3.752177	-0.885195	101.882936	0.074926	0.980178	0.468780	-10.179514	0.284574	-1.729964	1.178782	0.020574	19.320189	-5.358821	0.000000	-8.031991	0.268226	4.421248	0.413648	0.007220	24.478798	1.959647	0.000000	-0.042020	0.473910	0.155382	-0.078036	0.630301	0.165093	-0.069035	1.152266	0.165093	-0.048025	1.152266	0.135959	-0.039020	0.966398	0.126248	-0.024010	0.734087	0.116536	-0.300147	5.360968	0.864186	0.000000	0.000000	14.007881	0.398867	7.593671	1.311348	-36.702389	-42.532307	56.948859	21.791547	-0.425567	-1.405320	11.589954	-41.949180	-53.819280	43.678787	57.809601	14.463265	-4.120312
2.771930	-3.763135	-0.847186	101.818513	0.073890	0.980161	0.467958	-10.211624	0.205440	-1.731674	1.306310	0.022799	19.219099	-5.420383	0.000000	-8.160004	0.327329	4.335557	0.406912	0.007102	24.455975	2.103948	0.000000	-0.037453	0.481935	0.085194	-0.069554	0.640974	0.090518	-0.061531	1.171777	0.090518	-0.042805	1.171777	0.074544	-0.034779	0.982762	0.069220	-0.021401	0.746518	0.063895	-0.267522	5.451748	0.473821	0.000000	0.000000	14.213075	0.469996	7.668447	1.278984	-36.651078	-42.323404	56.349971	20.132723	-1.430077	-2.056343	12.164031	-41.781250	-55.372023	42.625547	59.981501	16.444244	-2.432283
2.789474	-3.777391	-0.816949	101.821441	0.072837	0.980173	0.467185	-10.234482	0.135270	-1.880792	1.447821	0.025269	19.154054	-5.356963	0.000000	-8.270288	0.372983	4.238723	0.402772	0.007030	24.427902	2.375596	0.000000	-0.034043	0.488074	0.012454	-0.063221	0.649139	0.013233	-0.055929	1.186704	0.013233	-0.038907	1.186704	0.010898	-0.031612	0.995281	0.010119	-0.019452	0.756027	0.009341	-0.243163	5.521195	0.069268	0.000000	0.000000	14.422759	0.568514	7.739509	1.154195	-36.589718	-42.473266	55.894330	18.877030	-2.202122	-2.353635	12.673497	-41.831540	-56.224220	41.905161	61.364003	17.785439	-1.031230
2.807018	-3.794015	-0.793296	101.899908	0.071736	0.980225	0.466508	-10.251741	0.075988	-2.181499	1.595983	0.027855	19.124563	-5.172465	0.000000	-8.360259	0.404411	4.147837	0.401351	0.007005	24.406179	2.767063	0.000000	-0.031831	0.493105	-0.065157	-0.059114	0.655829	-0.069229	-0.052296	1.198935	-0.069229	-0.036380	1.198935	-0.057012	-0.029558	1.005539	-0.052940	-0.018188	0.763819	-0.048867	-0.227367	5.578098	-0.362382	0.000000	0.000000	14.624783	0.699657	7.848814	0.946962	-36.536101	-42.897799	55.543375	18.054798	-2.683791	-2.411804	13.177342	-42.050176	-56.357755	41.482206	62.190554	18.491298	-0.030966
2.824561	-3.815069	-0.780537	102.044197	0.070602	0.980301	0.465930	-10.259329	0.020998	-2.633779	1.749257	0.030530	19.152623	-4.837252	0.000000	-8.426405	0.426055	4.044245	0.403011	0.007034	24.399285	3.286312	0.000000	-0.029779	0.496879	-0.150083	-0.055303	0.660849	-0.159463	-0.048924	1.208112	-0.159463	-0.034035	1.208112	-0.131322	-0.027653	1.013236	-0.121942	-0.017016	0.769666	-0.112562	-0.212710	5.620795	-0.834715	0.000000	0.000000	14.812508	0.866815	8.019033	0.717164	-36.466417	-43.595934	55.264556	17.925329	-2.849015	-2.209267	13.629161	-42.484991	-55.639937	41.393062	62.224822	18.319975	0.403121
2.842105	-3.828827	-0.763112	102.221937	0.069437	0.980403	0.465471	-10.266493	-0.021083	-3.186013	1.902835	0.033211	19.241661	-4.387497	0.000000	-8.484887	0.429839	3.921226	0.405493	0.007077	24.412665	3.888704	0.000000	-0.029934	0.501931	-0.239825	-0.055591	0.667568	-0.254814	-0.049179	1.220394	-0.254814	-0.034212	1.220394	-0.209846	-0.027797	1.023537	-0.194857	-0.017105	0.777491	-0.179868	-0.213819	5.677940	-1.333832	0.000000	0.000000	14.987722	1.051961	8.279169	0.488662	-36.417595	-44.444139	55.013036	18.595853	-2.772960	-1.873444	14.012638	-43.128877	-54.019618	41.641783	61.320816	17.082292	0.138949
2.859649	-3.838031	-0.750134	102.436554	0.068236	0.980511	0.465132	-10.265334	-0.055911	-3.824668	2.052654	0.035826	19.396966	-3.835101	0.000000	-8.526286	0.421325	3.775244	0.410458	0.007164	24.440773	4.575194	0.000000	-0.029888	0.507166	-0.338461	-0.055506	0.674531	-0.359615	-0.049104	1.233124	-0.359615	-0.034160	1.233124	-0.296153	-0.027754	1.034214	-0.274999	-0.017078	0.785601	-0.253846	-0.213491	5.737167	-1.882418	0.000000	0.000000	15.130851	1.252496	8.592947	0.296455	-36.369002	-45.415235	54.778060	20.301330	-2.580554	-1.407408	14.313554	-43.958241	-51.641758	42.190885	59.675122	14.878304	-0.636613
2.877193	-3.843580	-0.733301	102.669335	0.067016	0.980633	0.464907	-10.260274	-0.087264	-4.520192	2.201989	0.038432	19.602850	-3.197306	0.000000	-8.561948	0.403493	3.600288	0.416703	0.007273	24.479336	5.320123	0.000000	-0.029969	0.512701	-0.444746	-0.055655	0.681893	-0.472543	-0.049235	1.246582	-0.472543	-0.034251	1.246582	-0.389153	-0.027829	1.045501	-0.361356	-0.017124	0.794174	-0.333560	-0.214062	5.799780	-2.473546	0.000000	0.000000	15.219202	1.439545	8.928312	0.154286	-36.311109	-46.443308	54.553550	22.932742	-2.369723	-0.826370	14.527029	-44.891725	-48.742722	43.028301	57.626082	11.730873	-1.622200
2.894737	-3.834332	-0.714088	102.904707	0.065784	0.980761	0.464808	-10.247028	-0.106812	-5.260886	2.344411	0.040918	19.857177	-2.467784	0.000000	-8.589100	0.369246	3.392545	0.422418	0.007373	24.536512	6.103733	0.000000	-0.028958	0.520186	-0.553308	-0.053778	0.691847	-0.587890	-0.047575	1.264779	-0.587890	-0.033096	1.264779	-0.484145	-0.026890	1.060762	-0.449563	-0.016547	0.805767	-0.414981	-0.206844	5.884443	-3.077335	0.000000	0.000000	15.239166	1.593578	9.262452	0.094754	-36.198900	-47.623723	54.278907	26.469646	-1.923528	-0.080578	14.638867	-45.900100	-45.291864	44.077867	55.142853	7.591880	-2.875379
2.912281	-3.823905	-0.678179	103.136949	0.064546	0.980933	0.464830	-10.243078	-0.125931	-5.928656	2.481690	0.043314	20.093371	-1.830220	0.000000	-8.624836	0.331296	3.180092	0.430050	0.007506	24.597002	6.885141	0.000000	-0.029093	0.527669	-0.666807	-0.054029	0.701799	-0.708482	-0.047797	1.282973	-0.708482	-0.033251	1.282973	-0.583456	-0.027016	1.076022	-0.541781	-0.016624	0.817359	-0.500105	-0.207809	5.969093	-3.708580	0.000000	0.000000	15.163098	1.670101	9.534040	0.098021	-36.066051	-48.660316	53.971806	29.934649	-1.462859	0.627614	14.703732	-46.809732	-41.903032	45.294038	53.168236	3.046362	-3.909928
2.929825	-3.823125	-0.635621	103.312692	0.063404	0.981125	0.464941	-10.231753	-0.164559	-6.499898	2.622334	0.045768	20.318485	-1.249811	0.000000	-8.666254	0.311380	2.917619	0.437054	0.007628	24.659292	7.640301	0.000000	-0.029722	0.533651	-0.775621	-0.055197	0.709756	-0.824097	-0.048830	1.297519	-0.824097	-0.033969	1.297519	-0.678668	-0.027600	1.088221	-0.630192	-0.016983	0.826625	-0.581716	-0.212301	6.036764	-4.313772	0.000000	0.000000	14.990580	1.694524	9.765378	0.202831	-35.856108	-49.579901	53.596862	33.278224	-0.817862	1.291942	14.620450	-47.666825	-38.440697	46.631145	51.366013	-1.922335	-4.837523
2.947368	-3.829841	-0.594993	103.418356	0.062347	0.981335	0.465106	-10.205463	-0.229734	-7.101134	2.770171	0.048349	20.542027	-0.534258	0.000000	-8.707446	0.314356	2.594717	0.442318	0.007720	24.724754	8.359256	0.000000	-0.030107	0.538807	-0.873780	-0.055912	0.716614	-0.928391	-0.049463	1.310056	-0.928391	-0.034410	1.310056	-0.764557	-0.027958	1.098736	-0.709946	-0.017203	0.834612	-0.655335	-0.215053	6.095094	-4.859700	0.000000	0.000000	14.748959	1.646226	9.957243	0.373608	-35.550778	-50.359752	53.182933	36.264065	0.094919	1.985193	14.387786	-48.381110	-35.082356	48.072319	49.902177	-6.910740	-5.492296
2.964912	-3.852959	-0.544907	103.421495	0.061418	0.981567	0.465316	-10.175699	-0.332473	-7.624871	2.927543	0.051095	20.718287	0.166458	0.000000	-8.764308	0.353430	2.272072	0.446078	0.007786	24.794974	8.925046	0.000000	-0.033055	0.542279	-0.957542	-0.061386	0.721231	-1.017389	-0.054306	1.318497	-1.017389	-0.037778	1.318497	-0.837850	-0.030695	1.105815	-0.778003	-0.018887	0.839990	-0.718157	-0.236107	6.134367	-5.325563	0.000000	0.000000	14.432570	1.553410	10.131714	0.589049	-35.200368	-50.752857	52.732106	38.528527	1.212219	2.461094	14.148846	-48.867213	-32.359084	49.475068	49.543818	-11.110833	-5.638589
2.982456	-3.886795	-0.507855	103.303970	0.060620	0.981782	0.465497	-10.114976	-0.477710	-8.122357	3.108999	0.054262	20.882309	0.957811	0.000000	-8.818482	0.431830	1.932159	0.445569	0.007777	24.869224	9.342623	0.000000	-0.034783	0.544769	-1.024357	-0.064595	0.724543	-1.088379	-0.057145	1.324551	-1.088379	-0.039753	1.324551	-0.896312	-0.032299	1.110893	-0.832290	-0.019875	0.843847	-0.768268	-0.248450	6.162535	-5.697165	0.000000	0.000000	14.052070	1.413018	10.311734	0.832290	-34.802466	-50.750231	52.247912	40.161217	2.503351	2.760293	13.715557	-49.161869	-30.051669	50.908512	49.760499	-14.674149	-5.408420
